<svg version="1.0" xmlns="http://www.w3.org/2000/svg" width="300.000000ptpx" height="240.000000ptpx" viewBox="0 0 300.000000 240.000000" preserveAspectRatio="xMidYMid meet" transform="rotate(0) scale(1, 1)">
<metadata>
Created by potrace 1.10, written by Peter Selinger 2001-2011
</metadata>
<g transform="translate(0.000000,240.000000) scale(0.100000,-0.100000)" fill="#7945b8" stroke="none">
<path d="M1408 2305 c-2 -2 -27 -6 -57 -9 -73 -9 -91 -13 -196 -48 -250 -82&#10;-478 -274 -599 -503 -14 -27 -26 -55 -26 -62 0 -8 -48 -12 -169 -15 -208 -4&#10;-208 -4 -208 -111 -1 -107 -1 -107 181 -107 83 0 157 -4 164 -8 9 -6 -34 -63&#10;-149 -198 -89 -104 -170 -202 -180 -219 -12 -19 -19 -49 -19 -80 0 -27 -1 -60&#10;-1 -73 -1 -13 7 -32 17 -43 16 -17 32 -19 178 -19 89 0 166 -4 172 -8 6 -4 15&#10;-21 18 -39 11 -50 121 -208 201 -287 113 -113 230 -191 376 -249 59 -24 102&#10;-36 224 -63 17 -3 77 -8 135 -11 174 -8 387 42 550 130 181 98 391 319 450&#10;475 l18 47 93 5 c101 6 133 18 195 73 107 93 112 275 12 377 -61 64 -105 80&#10;-224 80 -56 0 -115 5 -133 11 -39 14 -51 51 -26 79 15 17 31 20 103 20 83 0&#10;85 -1 124 -36 30 -27 45 -34 62 -29 11 4 30 6 41 6 61 -4 71 -1 88 20 24 30&#10;18 74 -18 135 -49 84 -133 124 -263 124 l-57 0 -32 68 c-39 82 -110 177 -194&#10;259 -181 175 -377 270 -626 303 -70 9 -217 12 -225 5z m292 -40 c318 -67 552&#10;-236 723 -521 20 -34 37 -64 37 -68 0 -3 -10 -6 -22 -6 -18 0 -30 14 -53 57&#10;-39 74 -125 183 -201 252 -267 245 -662 327 -1005 210 -217 -74 -429 -245&#10;-542 -437 -34 -58 -54 -82 -68 -82 -10 0 -19 3 -19 6 0 11 80 143 116 191 141&#10;187 367 335 596 388 126 29 326 34 438 10z m-71 -55 c143 -18 311 -82 431&#10;-163 80 -55 201 -180 261 -271 33 -48 59 -94 59 -100 0 -7 -22 -22 -48 -33&#10;-100 -44 -169 -159 -160 -267 6 -65 31 -119 79 -166 64 -63 99 -75 234 -78&#10;132 -4 158 -14 153 -61 -4 -37 -41 -51 -136 -51 -82 0 -85 1 -114 32 -28 31&#10;-35 33 -104 34 -68 2 -75 0 -94 -23 -49 -63 44 -212 152 -245 21 -6 38 -13 38&#10;-16 0 -14 -67 -122 -112 -178 -57 -73 -171 -174 -250 -222 -65 -39 -222 -104&#10;-298 -123 -37 -9 -110 -14 -220 -13 -198 0 -265 16 -436 99 -166 82 -303 207&#10;-399 364 -21 36 -34 66 -29 71 5 5 29 10 53 12 34 2 49 9 64 29 16 22 17 30 7&#10;49 -9 17 -9 29 -1 47 13 28 -6 76 -34 87 -9 3 -84 6 -166 6 -98 0 -149 4 -149&#10;11 0 5 77 101 171 212 94 111 175 212 180 224 5 13 5 33 0 45 -4 12 -3 37 2&#10;55 10 30 8 37 -15 60 -17 17 -40 27 -72 30 -25 3 -46 10 -46 15 0 24 113 179&#10;177 243 132 133 284 219 464 263 132 33 224 38 358 22z m-899 -605 c0 -17 -37&#10;-68 -122 -168 -68 -78 -190 -223 -273 -321 -120 -142 -151 -173 -153 -156 -2&#10;12 3 29 11 38 8 9 105 124 216 255 l202 238 -213 -1 -213 -2 -3 27 -3 26 236&#10;-2 c214 -2 237 0 255 16 11 10 18 20 16 22 -2 2 -117 4 -255 3 l-251 -1 0 26&#10;0 25 275 0 275 0 0 -25z m1945 6 c58 -26 103 -75 119 -129 16 -55 13 -62 -20&#10;-62 -20 0 -24 5 -24 29 0 38 -37 90 -80 112 -28 15 -57 19 -152 19 -127 0&#10;-158 -7 -201 -48 -42 -40 -57 -75 -57 -133 0 -68 33 -126 92 -159 38 -22 57&#10;-25 158 -28 135 -3 150 -6 177 -29 68 -60 53 -190 -27 -230 -30 -15 -256 -18&#10;-294 -3 -28 10 -66 64 -66 93 0 12 8 17 25 17 18 0 25 -5 25 -18 0 -11 9 -27&#10;21 -38 18 -16 37 -19 139 -19 111 0 120 2 144 24 33 31 41 72 22 110 -9 16&#10;-22 33 -28 38 -7 4 -75 10 -150 13 -132 5 -138 6 -180 35 -62 44 -100 103&#10;-106 164 -10 105 40 194 132 237 45 21 66 24 171 24 95 0 128 -4 160 -19z&#10;m-25 -86 c30 -15 60 -61 60 -90 0 -30 -44 -17 -60 18 l-15 32 -114 3 c-112 3&#10;-115 2 -143 -25 -20 -19 -28 -36 -28 -61 0 -80 42 -102 200 -102 89 0 118 -4&#10;148 -19 81 -42 124 -116 123 -214 0 -77 -36 -139 -105 -182 -48 -29 -52 -30&#10;-200 -33 -141 -3 -154 -1 -196 20 -54 28 -99 90 -107 147 -6 41 -5 43 18 39&#10;17 -2 25 -11 30 -37 9 -43 37 -81 80 -106 29 -17 52 -20 169 -20 149 0 175 8&#10;224 65 60 72 55 178 -11 244 -46 46 -84 56 -213 56 -122 0 -162 15 -192 71&#10;-36 67 -13 148 54 189 28 17 51 20 141 20 77 0 116 -4 137 -15z m-1946 -68&#10;c-14 -17 -108 -128 -208 -245 -99 -117 -182 -216 -184 -220 -1 -4 92 -6 208&#10;-4 l210 3 0 -26 0 -25 -232 0 c-201 0 -234 -2 -250 -17 -10 -9 -18 -20 -18&#10;-25 0 -5 108 -8 250 -6 l250 3 0 -25 0 -25 -272 2 c-263 2 -273 3 -276 22 -2&#10;14 67 102 224 288 350 412 319 378 322 354 2 -12 -8 -35 -24 -54z m-98 -689&#10;c184 -357 610 -587 997 -539 183 23 353 87 492 186 90 64 216 200 272 296 35&#10;59 56 85 71 87 12 2 22 0 22 -3 0 -11 -70 -125 -114 -185 -151 -208 -381 -351&#10;-646 -405 -126 -26 -352 -17 -474 18 -183 53 -367 165 -492 299 -57 63 -184&#10;246 -184 267 0 25 40 10 56 -21z"/>
<path d="M1372 1637 c-23 -25 -252 -723 -252 -768 0 -39 41 -67 79 -52 18 6&#10;34 6 49 0 33 -15 66 4 94 55 l23 43 105 0 105 0 23 -43 c28 -51 61 -70 94 -55&#10;15 6 31 6 49 0 37 -14 79 13 79 50 0 42 -230 746 -252 769 -16 18 -31 22 -98&#10;22 -68 0 -81 -3 -98 -21z m83 -29 c21 -72 229 -714 242 -745 3 -9 -5 -13 -25&#10;-13 -27 0 -30 4 -43 53 l-14 52 -146 3 -146 3 -13 -56 c-12 -51 -15 -55 -43&#10;-55 -24 0 -28 3 -22 18 4 9 51 150 104 312 84 255 96 299 87 328 -5 17 -12 32&#10;-15 32 -4 0 -13 -21 -19 -47 -7 -27 -49 -160 -93 -298 -44 -137 -87 -271 -95&#10;-297 -13 -40 -20 -48 -40 -48 -13 0 -24 3 -24 6 0 7 241 757 247 767 2 4 15 7&#10;28 7 16 0 26 -7 30 -22z m112 -58 c14 -41 69 -213 124 -381 54 -168 99 -309&#10;99 -313 0 -3 -11 -6 -24 -6 -21 0 -28 15 -90 208 -97 300 -177 542 -183 559&#10;-4 11 1 14 22 11 26 -3 31 -10 52 -78z"/>
<path d="M1456 1367 c-3 -18 -23 -85 -44 -150 l-39 -117 98 0 97 0 -44 132&#10;c-24 73 -44 138 -44 144 0 28 -18 21 -24 -9z m34 -163 c15 -44 7 -64 -25 -64&#10;-29 0 -31 13 -14 71 14 44 23 43 39 -7z"/>
<path d="M1353 1043 c-3 -10 -8 -21 -10 -25 -2 -5 54 -8 126 -8 l130 0 -8 23&#10;c-8 21 -14 22 -120 25 -99 2 -112 1 -118 -15z"/>
</g>
</svg>